<?xml version="1.0" encoding="UTF-8" standalone="no"?>
<!-- Created with Inkscape (http://www.inkscape.org/) -->
<svg xmlns:svg="http://www.w3.org/2000/svg" xmlns="http://www.w3.org/2000/svg" version="1.0" width="242.88606" height="242.97513" id="svg2429">
  <defs id="defs2431"/>
  <g transform="translate(-284.34529,-310.87462)" id="layer1">
    <path d="M 441.27656,421.69091 L 489.06851,421.69091 C 489.06851,421.69091 490.95942,414.50647 482.448,403.73556 C 465.63578,386.36245 446.75096,397.88425 446.75096,397.88425 C 437.49097,402.79466 425.59827,423.19951 432.5752,452.48057 C 441.27656,481.76777 474.70802,487.79444 495.4807,480.9959 C 509.22935,476.49815 517.15628,466.58258 520.97082,460.36264 C 522.19749,455.33062 523.07302,450.29854 523.62479,445.29613 L 441.27656,445.29613 L 441.27656,421.69091 z" id="path2425" style="fill:#003247;fill-opacity:1;fill-rule:nonzero;stroke:none"/>
    <path style="fill:#003247;fill-opacity:1;fill-rule:nonzero;stroke:none" id="path2423" d="M 399.50313,314.0484 C 349.07144,316.73088 304.07792,351.63361 291.01123,403.15996 C 274.92326,466.58228 313.28624,531.09154 376.70273,547.18248 C 421.76015,558.6123 467.44984,542.56008 495.83482,509.56183 C 483.35387,512.54546 468.74721,512.7444 452.89406,507.28179 C 399.80336,488.94941 390.0744,439.81917 403.30319,405.44 C 416.51453,371.05852 462.77423,355.03288 494.8848,378.07952 C 522.40658,397.81786 523.91846,432.98525 523.7653,442.68065 C 528.83009,385.78642 492.17885,331.97699 435.03374,317.46846 C 423.14324,314.45309 411.14124,313.42939 399.50313,314.0484 z M 341.74211,418.55023 C 350.16166,418.55023 356.94238,425.33635 356.94238,433.7505 C 356.94238,442.16992 350.16166,448.95076 341.74211,448.95076 C 333.32859,448.95076 326.35184,442.16992 326.35184,433.7505 C 326.35191,425.33635 333.32859,418.55023 341.74211,418.55023 z"/>
  </g>
</svg>