<?xml version="1.0" encoding="UTF-8" standalone="no"?>
<svg
   xmlns:dc="http://purl.org/dc/elements/1.1/"
   xmlns:cc="http://creativecommons.org/ns#"
   xmlns:rdf="http://www.w3.org/1999/02/22-rdf-syntax-ns#"
   xmlns:svg="http://www.w3.org/2000/svg"
   xmlns="http://www.w3.org/2000/svg"
   xmlns:sodipodi="http://sodipodi.sourceforge.net/DTD/sodipodi-0.dtd"
   xmlns:inkscape="http://www.inkscape.org/namespaces/inkscape"
   version="1.1"
   x="0px"
   y="0px"
   viewBox="0 0 89.999999 105"
   xml:space="preserve"
   id="svg111"
   sodipodi:docname="CCIT_Stemma.svg"
   width="90"
   height="105"
   inkscape:version="1.0.2-2 (e86c870879, 2021-01-15)"
   inkscape:export-filename="D:\Dropbox (CINI)\- CybersecNatLab - CyberChallenge.IT 2022 - Public\Comunicazione\Press-Kit\CCIT_Logo.png"
   inkscape:export-xdpi="368"
   inkscape:export-ydpi="368"><metadata
   id="metadata117"><rdf:RDF><cc:Work
       rdf:about=""><dc:format>image/svg+xml</dc:format><dc:type
         rdf:resource="http://purl.org/dc/dcmitype/StillImage" /><dc:title></dc:title></cc:Work></rdf:RDF></metadata><defs
   id="defs115" /><sodipodi:namedview
   pagecolor="#ffffff"
   bordercolor="#666666"
   borderopacity="1"
   objecttolerance="10"
   gridtolerance="10"
   guidetolerance="10"
   inkscape:pageopacity="0"
   inkscape:pageshadow="2"
   inkscape:window-width="1688"
   inkscape:window-height="1336"
   id="namedview113"
   showgrid="false"
   fit-margin-top="0"
   fit-margin-left="0"
   fit-margin-right="0"
   fit-margin-bottom="0"
   inkscape:zoom="6.7508684"
   inkscape:cx="48.671737"
   inkscape:cy="56.497625"
   inkscape:window-x="1707"
   inkscape:window-y="16"
   inkscape:window-maximized="0"
   inkscape:current-layer="Logo"
   inkscape:document-rotation="0" />
<style
   type="text/css"
   id="style2">
	.st0{fill:#1B4778;}
	.st1{fill:#FFFFFF;}
	.st2{display:none;}
	.st3{display:inline;fill:none;stroke:#C6C6C5;stroke-width:0.25;stroke-miterlimit:10;}
	.st4{display:inline;fill:#C6C6C5;}
	.st5{font-family:'GothamLight';}
	.st6{font-size:6px;}
	.st7{display:inline;}
	.st8{fill:none;stroke:#E20613;stroke-width:0.15;stroke-miterlimit:10;}
</style>
<g
   id="Sfondo"
   transform="translate(-24,-24)">
</g>
<g
   id="Italia"
   transform="translate(-24,-24)">
</g>
<g
   id="Livello_1"
   transform="translate(-24,-24)">
</g>
<g
   id="Logo"
   transform="translate(-24,-24)">
	<g
   id="g81">
		<rect
   x="60"
   y="24"
   class="st0"
   width="18"
   height="3"
   id="rect7" />
		<rect
   x="45"
   y="30"
   class="st0"
   width="48"
   height="3"
   id="rect9" />
		<rect
   x="27"
   y="36"
   class="st0"
   width="30"
   height="3"
   id="rect11" />
		<rect
   x="69"
   y="36"
   class="st0"
   width="42"
   height="3"
   id="rect13" />
		<rect
   x="75"
   y="42"
   class="st0"
   width="39"
   height="3"
   id="rect15" />
		<rect
   x="75"
   y="66"
   class="st0"
   width="39"
   height="3"
   id="rect17" />
		<rect
   x="51"
   y="96"
   class="st0"
   width="39"
   height="3"
   id="rect19" />
		<rect
   x="48"
   y="120"
   class="st0"
   width="42"
   height="3"
   id="rect21" />
		<rect
   x="30"
   y="102"
   class="st0"
   width="60"
   height="3"
   id="rect23" />
		<rect
   x="80.900002"
   y="72"
   class="st0"
   width="33.099998"
   height="3"
   id="rect25" />
		<rect
   x="90"
   y="78"
   class="st0"
   width="24"
   height="3"
   id="rect27" />
		<rect
   x="102"
   y="84"
   class="st0"
   width="12"
   height="3"
   id="rect29" />
		<rect
   x="69"
   y="48"
   class="st0"
   width="45"
   height="3"
   id="rect31" />
		<rect
   x="72"
   y="60"
   class="st0"
   width="42"
   height="3"
   id="rect33" />
		<rect
   x="66"
   y="54"
   class="st0"
   width="48"
   height="3"
   id="rect35" />
		<rect
   x="24"
   y="42"
   class="st0"
   width="15"
   height="3"
   id="rect37" />
		<rect
   x="24"
   y="60"
   class="st0"
   width="12"
   height="3"
   id="rect39" />
		<rect
   x="42"
   y="60"
   class="st0"
   width="9"
   height="3"
   id="rect41" />
		<rect
   x="96"
   y="90"
   class="st0"
   width="6"
   height="3"
   id="rect43" />
		<rect
   x="96"
   y="102"
   class="st0"
   width="12"
   height="3"
   id="rect45" />
		<rect
   x="108"
   y="90"
   class="st0"
   width="6"
   height="3"
   id="rect47" />
		<rect
   x="24"
   y="54"
   class="st0"
   width="9"
   height="3"
   id="rect49" />
		<rect
   x="24"
   y="48"
   class="st0"
   width="9"
   height="3"
   id="rect51" />
		<rect
   x="24"
   y="66"
   class="st0"
   width="30"
   height="3"
   id="rect53" />
		<rect
   x="51"
   y="90"
   class="st0"
   width="33"
   height="3"
   id="rect55" />
		<rect
   x="57"
   y="126"
   class="st0"
   width="24"
   height="3"
   id="rect57" />
		<rect
   x="51"
   y="84"
   class="st0"
   width="24"
   height="3"
   id="rect59" />
		<rect
   x="33"
   y="108"
   class="st0"
   width="33"
   height="3"
   id="rect61" />
		<rect
   x="39"
   y="114"
   class="st0"
   width="36"
   height="3"
   id="rect63" />
		<rect
   x="24"
   y="72"
   class="st0"
   width="36"
   height="3"
   id="rect65" />
		<rect
   x="24"
   y="78"
   class="st0"
   width="42"
   height="3"
   id="rect67" />
		<rect
   x="24"
   y="84"
   class="st0"
   width="21"
   height="3"
   id="rect69" />
		<rect
   x="24"
   y="90"
   class="st0"
   width="18"
   height="3"
   id="rect71" />
		<rect
   x="99"
   y="96"
   class="st0"
   width="12"
   height="3"
   id="rect73" />
		<rect
   x="87"
   y="114"
   class="st0"
   width="12"
   height="3"
   id="rect75" />
		<rect
   x="87"
   y="108"
   class="st0"
   width="18"
   height="3"
   id="rect77" />
		<rect
   x="26.9"
   y="96"
   class="st0"
   width="15"
   height="3"
   id="rect79" />
	</g>
	
</g>
<g
   id="Light"
   transform="translate(-24,-24)">
</g>
<g
   id="Ingombro"
   class="st2"
   transform="translate(-24,-24)">
	<rect
   x="24"
   class="st3"
   width="90"
   height="24"
   id="rect87"
   y="0" />
	<rect
   x="0"
   transform="rotate(180,12,12)"
   class="st3"
   width="24"
   height="24"
   id="rect89"
   y="0" />
	<rect
   x="0"
   y="132"
   transform="rotate(180,12,144)"
   class="st3"
   width="24"
   height="24"
   id="rect91" />
	<rect
   x="24"
   y="132"
   transform="rotate(180,69,144)"
   class="st3"
   width="90"
   height="24"
   id="rect93" />
	<rect
   x="138"
   y="132"
   transform="rotate(180,322.12445,144)"
   class="st3"
   width="368.20001"
   height="24"
   id="rect95" />
	<rect
   x="138"
   transform="rotate(180,322.12445,12)"
   class="st3"
   width="368.20001"
   height="24"
   id="rect97"
   y="0" />
	<rect
   x="0"
   y="24"
   transform="rotate(180,12,78)"
   class="st3"
   width="24"
   height="108"
   id="rect99" />
	<rect
   x="114"
   y="24"
   transform="rotate(180,126,78)"
   class="st3"
   width="24"
   height="108"
   id="rect101" />
	<rect
   x="506"
   y="24"
   transform="rotate(180,518,78)"
   class="st3"
   width="24"
   height="108"
   id="rect103" />
	<text
   transform="translate(26.367,13.0497)"
   class="st4 st5 st6"
   id="text105">a</text>
	<text
   transform="translate(10.2775,21.1396)"
   class="st4 st5 st6"
   id="text107">a</text>
</g>
<g
   id="Grid_x5F_12"
   class="st2"
   transform="translate(-24,-24)">
</g>
</svg>
