<svg version="1.2" xmlns="http://www.w3.org/2000/svg" viewBox="0 0 1369 1588" width="1369" height="1588">
	<title>Leonardo DRS IR Presentation-1-pdf-svg (2)-svg-svg</title>
	<style>
		.s0 { fill: #ea0029 } 
	</style>
	<g id="Clip-Path: Clip-Path: Page 1">
		<g id="Clip-Path: Page 1">
			<g id="Page 1">
				<path id="Path 10" fill-rule="evenodd" class="s0" d="m1230.7 1204.2c5 7.4 2.5 16.5-2.5 21.5l-108.9 130.4c-7.4 7.4-14.8 9.9-21.4 9.9q-5 0-7.5-2.5-9-2.5-18.9-7.4l-5-2.5-19-6.6c-335-137.9-548.7-490.3-548.7-490.3 0 0 216.2 199.7 715.4 331 7.4 2.5 14 6.6 16.5 16.5zm137.8-499.4c-2.5 45.4-9.1 126.3-14 149.4 0 5 0 14.9-7.4 19q-2.5 0-5 2.5h-2.5l-811.9-113.9c0 0 532.2-92.5 733.6-92.5 33.8 0 74.2 4.2 80.8 4.2 17.3 2.4 28.9 17.3 26.4 31.3zm-249.2-547.2l25.6-9.1q0 0 2.5 0l2.5-2.5q18.1-3.3 28.8 7.5c23.1 28 82.6 111.4 99.9 135.3 4.1 6.6 4.1 16.5 2.5 24-5 6.6-12.4 11.5-19.8 14-44.6 9.1-479.5 88.3-733.6 316.1 82.5-116.3 275.6-368.1 591.6-485.3zm-618-44.6l14-21.4q0-2.5 2.5-5c7.4-9.9 14-21.4 21.4-30.5l28.9-33.9c0-2.4 1.7-2.4 6.6-4.9 5-1.7 12.4-1.7 14.9-1.7l160.9-14.8c9.9 0 19 4.9 23.9 14.8q7.4 17.4-7.4 28.1c-73.4 66.9-258.3 247.6-344.1 487.8-4.9 19-19 82.5-23.9 111.4-21.5-259.1 61.9-461.4 102.3-529.9zm-389.5 332.7c-2.5-5-4.9-11.6 0-19 0-5 33-92.5 66-140.3 7.5-11.6 19-14.1 28.9-11.6 11.6 1.7 19 14 19 23.1l2.5 21.5c9 188.2 89.9 335.1 89.9 335.1 0 0-165.8-116.4-206.3-208.8zm201.4 408.5c0 0-97.4 180.8-137.8 321.1-4.2 16.5-11.6 40.4-25.6 40.4-2.5 0-21.5 2.5-28.9-16.5-21.5-49.5-35.5-135.3-38-151.8 0-5 0-12.4 5-19 68.5-88.3 225.3-174.2 225.3-174.2zm473.6 663.6c9.1 7.5 9.1 19 6.6 28.9-2.5 4.2-6.6 9.1-14 11.6h-2.5l-183.2 28.9h-6.6c-2.5 0-7.4-5-7.4-5-240.1-261.6-178.3-713.1-178.3-713.1 0 0 35.5 308.7 321 584.4l14.1 14.8c21.4 23.1 40.4 40.5 50.3 49.5z"/>
				<path id="Path 11" class="s0" d="m293.4 743.6l-80.9-16.5c-19-4.9-106.5-23.9-144.4-56.9q-5-5-7.4-7.5c-7.5-6.6-16.5-9-26.4-6.6-9.1 2.5-16.5 9.1-19 19-6.6 24-16.5 109-14 126.3q2.4 6.6 11.5 14l9.9 2.5h5c37.9-4.9 144.4-38 189.7-52.8z"/>
			</g>
		</g>
	</g>
</svg>