<?xml version="1.0" standalone="no"?>
<!DOCTYPE svg PUBLIC "-//W3C//DTD SVG 20010904//EN"
 "http://www.w3.org/TR/2001/REC-SVG-20010904/DTD/svg10.dtd">
<svg version="1.0" xmlns="http://www.w3.org/2000/svg"
 width="180.000000pt" height="180.000000pt" viewBox="0 0 180.000000 180.000000"
 preserveAspectRatio="xMidYMid meet">

<g transform="translate(0.000000,180.000000) scale(0.100000,-0.100000)"
fill="#34c0bd" stroke="none">
<path d="M835 1775 c-47 -16 -111 -83 -120 -125 -5 -23 -17 -34 -58 -53 -107
-49 -157 -119 -157 -218 0 -184 115 -259 400 -259 285 0 400 75 400 259 0 99
-50 169 -157 218 -41 19 -53 30 -58 54 -10 44 -82 115 -130 128 -51 14 -71 13
-120 -4z"/>
<path d="M159 1569 c-20 -20 -21 -29 -16 -113 10 -164 64 -292 162 -385 55
-52 55 -52 55 -112 l0 -59 -158 0 c-153 0 -159 -1 -180 -23 -27 -29 -28 -57
-3 -88 18 -23 26 -24 187 -29 l167 -5 13 -45 c7 -24 12 -45 11 -45 -194 -92
-271 -173 -312 -332 -32 -122 -12 -193 53 -193 44 0 65 31 73 109 9 84 43 154
98 204 42 38 110 77 134 77 8 0 33 -25 56 -55 81 -107 176 -184 280 -225 l50
-19 3 307 c3 267 5 311 20 338 30 54 66 54 96 0 15 -27 17 -71 20 -338 l3
-307 41 15 c98 34 219 132 299 242 17 23 36 42 43 42 28 0 117 -54 154 -94 46
-50 82 -138 82 -200 0 -56 30 -96 71 -96 66 0 86 70 54 193 -41 159 -118 240
-312 332 -1 0 4 21 11 45 l13 45 167 5 c161 5 169 6 187 29 25 31 24 63 -4 89
-22 21 -33 22 -180 22 l-157 0 0 60 c0 58 1 60 50 106 101 94 157 225 167 390
5 84 4 93 -16 113 -54 54 -121 8 -121 -85 0 -118 -45 -239 -115 -309 -124
-125 -488 -185 -736 -121 -53 13 -136 44 -185 68 -76 37 -94 51 -125 95 -46
66 -70 143 -78 248 -5 61 -11 89 -25 104 -25 27 -70 27 -97 0z"/>
</g>
</svg>
